<svg version="1.1" id="Layer_1" xmlns="http://www.w3.org/2000/svg" xmlns:xlink="http://www.w3.org/1999/xlink" x="0px" y="0px"
	 width="100%" viewBox="0 0 418 319" enable-background="new 0 0 418 319" xml:space="preserve">
<path fill="#010000" opacity="1.000000" stroke="none" 
	d="
M266.000000,320.000000 
	C177.363235,320.000000 89.226471,320.000000 1.044853,320.000000 
	C1.044853,213.732651 1.044853,107.465271 1.044853,1.098947 
	C140.220047,1.098947 279.440186,1.098947 418.830170,1.098947 
	C418.830170,107.333115 418.830170,213.666534 418.830170,320.000000 
	C368.132019,320.000000 317.316010,320.000000 266.000000,320.000000 
M201.195358,79.153152 
	C200.997452,78.876999 200.734726,78.693840 200.044632,78.047829 
	C194.517502,73.308945 189.057770,68.487167 183.411072,63.895317 
	C182.157028,62.875542 180.243774,62.666420 178.107010,61.422703 
	C175.547012,59.608803 172.987030,57.794903 170.264587,55.394032 
	C163.526871,51.846687 156.789139,48.299347 150.063583,44.900719 
	C150.063583,44.900719 150.210999,44.877640 150.016983,44.304474 
	C148.020935,43.496826 146.024887,42.689178 144.030670,41.954353 
	C144.030670,41.954353 144.102798,41.944256 143.816452,41.300953 
	C136.605881,38.900921 129.395309,36.500889 121.324203,34.036980 
	C117.973244,33.336483 114.622292,32.635990 111.151855,31.451365 
	C104.791489,30.452042 98.431122,29.452721 91.340950,28.047070 
	C82.388374,27.366816 73.436539,26.676052 64.479874,26.054718 
	C64.197906,26.035158 63.866272,26.731524 62.847797,26.820156 
	C61.883041,27.863010 60.918289,28.905865 59.195602,30.386576 
	C59.091656,31.708723 58.897038,33.030853 58.896759,34.353024 
	C58.882774,100.414131 58.878456,166.475250 58.929981,232.536331 
	C58.931164,234.052444 59.583748,235.568039 59.945446,237.000504 
	C59.945446,237.000504 59.891426,237.065323 59.867729,237.748978 
	C60.991199,238.808426 62.114666,239.867859 64.073364,241.049225 
	C66.619537,241.355423 69.165710,241.661621 72.342300,242.215805 
	C84.550499,244.098038 96.758690,245.980270 109.789627,248.141968 
	C114.393227,249.077591 118.996826,250.013214 123.814392,251.531921 
	C127.876717,253.304642 131.939041,255.077362 136.612671,257.195679 
	C142.374512,259.896088 148.136353,262.596527 153.844177,265.168091 
	C153.844177,265.168091 153.724106,265.239532 154.073715,265.810272 
	C160.030075,269.672455 165.965149,273.568024 171.952698,277.381256 
	C174.543610,279.031311 177.242767,280.511444 180.159470,282.708191 
	C182.646149,284.607819 185.132828,286.507446 187.660858,288.666901 
	C187.670593,288.897095 187.791794,289.029785 187.935226,288.989014 
	C187.935226,288.989014 187.858185,289.077332 187.865967,289.764374 
	C190.504547,292.204620 193.143127,294.644836 196.027359,297.649292 
	C196.627716,298.184753 197.228088,298.720245 197.842010,299.154755 
	C197.842010,299.154755 197.740417,299.161896 197.990891,299.803253 
	C199.798599,301.907654 201.462997,304.159241 203.442932,306.086731 
	C207.992783,310.516022 214.740799,309.733551 218.047729,303.819519 
	C220.060486,301.829712 222.073242,299.839905 224.577042,297.980438 
	C228.539825,293.987244 232.502594,289.994080 236.907013,285.878082 
	C236.907013,285.878082 237.075165,285.451630 237.477173,285.349548 
	C237.765640,284.974731 238.054123,284.599915 238.887054,283.690735 
	C243.596405,280.402924 248.305756,277.115143 253.662643,273.645599 
	C261.651978,269.078278 269.662048,264.546478 277.608063,259.904999 
	C278.786713,259.216522 279.663055,258.010590 281.160156,257.151703 
	C281.772675,257.118011 282.385223,257.084320 283.757568,256.994720 
	C288.883575,254.686325 294.009583,252.377945 299.910248,250.135773 
	C300.907867,250.028702 301.905457,249.921646 303.693329,249.757385 
	C310.452454,248.118301 317.211609,246.479202 324.824127,244.882507 
	C331.564270,243.992661 338.304382,243.102814 345.940247,242.344482 
	C346.836761,242.244476 347.733276,242.144455 349.186646,242.179932 
	C351.590149,242.093552 353.993622,242.007172 357.037476,242.060425 
	C357.610504,241.796371 358.183563,241.532318 359.300659,241.247055 
	C359.588928,241.048447 359.877197,240.849838 360.517334,240.487839 
	C360.785187,240.101547 361.053009,239.715256 361.939148,238.654465 
	C362.299744,237.061111 362.974579,235.467972 362.975677,233.874374 
	C363.020996,166.997589 363.020660,100.120750 362.916504,33.244076 
	C362.913849,31.530268 361.689636,29.818363 360.235199,27.829908 
	C356.495331,27.598969 352.755493,27.368031 348.220093,27.020355 
	C344.763123,27.382805 341.306183,27.745256 337.031494,27.937305 
	C329.687744,28.665529 322.343964,29.393755 314.348846,30.072922 
	C313.538788,30.369287 312.728760,30.665651 311.444550,30.884867 
	C311.444550,30.884867 310.998230,31.062513 310.301392,30.979172 
	C309.460327,31.288456 308.619232,31.597738 307.378082,31.859833 
	C307.378082,31.859833 307.001343,32.002625 306.511505,31.855017 
	C305.363403,32.244175 304.215302,32.633335 302.308350,32.991653 
	C300.204651,33.660206 298.100952,34.328758 295.196869,34.933792 
	C286.441498,38.601852 277.686127,42.269913 268.999359,45.957867 
	C268.999359,45.957867 269.011902,45.887512 268.621979,46.028450 
	C268.382233,46.308147 268.142517,46.587845 267.127197,46.889030 
	C265.799286,47.601971 264.471375,48.314915 262.373901,48.867592 
	C257.920715,51.595009 253.467560,54.322426 248.697098,57.586315 
	C247.738419,58.293385 246.779739,59.000450 245.084595,59.789856 
	C236.611481,66.870155 228.138382,73.950455 219.214630,81.172928 
	C219.214630,81.172928 218.996460,81.592110 218.738663,81.909088 
	C218.496033,82.444405 218.253403,82.979713 217.233521,84.037857 
	C217.054657,84.293793 216.875793,84.549728 216.465866,84.722145 
	C216.465866,84.722145 216.056854,84.945335 216.056854,84.945335 
	C216.056854,84.945335 216.096207,85.349937 215.234451,86.050499 
	C215.006851,86.342468 214.779266,86.634445 214.376678,86.857315 
	C214.376678,86.857315 213.946243,87.101120 213.946243,87.101120 
	C213.946243,87.101120 214.222641,87.184242 213.405655,87.899971 
	C212.447998,88.289238 211.490341,88.678505 210.235092,88.542236 
	C208.921753,87.254593 207.608414,85.966942 206.119431,84.900177 
	C206.119431,84.900177 206.326935,84.708908 206.101715,84.128296 
	C205.198349,83.291069 204.294968,82.453850 203.335510,81.690361 
	C203.335510,81.690361 203.425903,81.710663 203.216232,81.168167 
	C202.891769,80.973015 202.567307,80.777870 202.287140,80.682030 
	C202.287140,80.682030 202.327637,80.581116 202.172073,80.130600 
	C201.985565,79.853127 201.730118,79.673958 201.195358,79.153152 
z"/>
<path fill="#F3B51B" opacity="1.000000" stroke="none" 
	d="
M302.903076,249.814590 
	C301.905457,249.921646 300.907867,250.028702 299.117737,250.084183 
	C292.887177,251.653687 286.715118,251.671616 282.997742,257.050629 
	C282.385223,257.084320 281.772675,257.118011 280.579041,257.124207 
	C271.543365,261.687225 263.063843,266.233063 254.673370,270.937805 
	C253.841965,271.404022 253.554840,272.840942 253.015106,273.827332 
	C248.305756,277.115143 243.596405,280.402924 238.470367,284.054138 
	C237.727509,284.762268 237.401337,285.106934 237.075165,285.451630 
	C237.075165,285.451630 236.907013,285.878082 236.372864,285.965393 
	C231.921127,289.985138 228.003555,293.917603 224.085999,297.850098 
	C222.073242,299.839905 220.060486,301.829712 217.647888,304.310760 
	C210.907379,308.174683 205.630890,307.338867 201.427597,301.126160 
	C200.737778,300.106567 198.996017,299.798676 197.740417,299.161896 
	C197.740417,299.161896 197.842010,299.154755 197.883575,298.889038 
	C197.662521,298.066132 197.399902,297.508942 197.048218,296.618896 
	C193.925507,293.883118 190.891846,291.480225 187.858185,289.077332 
	C187.858185,289.077332 187.935226,288.989014 187.879120,288.921997 
	C187.670441,288.743408 187.602615,288.594116 187.619522,288.407074 
	C185.132828,286.507446 182.646149,284.607819 179.995438,282.054138 
	C174.949493,277.757874 170.243057,273.841309 165.124985,270.568420 
	C161.621506,268.327972 157.544647,266.984161 153.724106,265.239532 
	C153.724106,265.239532 153.844177,265.168091 153.804199,264.879150 
	C147.876663,261.637024 141.989120,258.683838 135.962830,255.425293 
	C131.749527,253.729568 127.674980,252.339188 123.600426,250.948822 
	C118.996826,250.013214 114.393227,249.077591 109.271523,247.662903 
	C100.955276,245.448761 93.210648,243.383591 85.338112,242.107452 
	C80.904976,241.388824 76.260925,241.971405 71.711884,241.967819 
	C69.165710,241.661621 66.619537,241.355423 63.596596,240.624527 
	C62.043690,239.154999 60.967556,238.110153 59.891426,237.065323 
	C59.891426,237.065323 59.945446,237.000504 60.005943,236.572479 
	C60.065056,221.665634 60.070080,207.186798 60.061165,192.707977 
	C60.027756,138.454895 59.989792,84.201805 59.953537,29.948719 
	C60.918289,28.905865 61.883041,27.863010 63.518211,27.117058 
	C73.457588,27.866703 82.726547,28.319448 92.092125,29.078814 
	C98.549599,30.235453 104.910469,31.085472 111.271332,31.935493 
	C114.622292,32.635990 117.973244,33.336483 121.824753,34.402969 
	C129.584473,37.160725 136.843643,39.552490 144.102798,41.944256 
	C144.102798,41.944256 144.030670,41.954353 144.100006,42.274536 
	C146.183228,43.355694 148.197113,44.116665 150.210999,44.877640 
	C150.210999,44.877640 150.063583,44.900719 150.161346,45.172104 
	C156.981766,48.955994 163.704391,52.468498 170.427032,55.981003 
	C172.987030,57.794903 175.547012,59.608803 178.523666,61.939400 
	C183.980469,66.607590 189.020599,70.759087 194.134857,75.151688 
	C194.434967,75.637352 194.660980,75.881912 195.043625,76.363159 
	C195.757858,77.105858 196.315445,77.611870 197.015839,78.299759 
	C197.371796,78.717979 197.632767,78.874748 197.964417,78.981461 
	C197.987305,79.010994 198.057480,79.036606 198.204498,79.319244 
	C199.261841,80.074539 200.172150,80.547203 201.408691,80.952553 
	C201.932480,80.783867 202.130051,80.682487 202.327637,80.581116 
	C202.327637,80.581116 202.287140,80.682030 202.339371,80.928268 
	C202.736374,81.353233 203.081131,81.531952 203.425903,81.710663 
	C203.425903,81.710663 203.335510,81.690361 203.274963,82.028610 
	C204.251907,83.147537 205.289429,83.928223 206.326935,84.708908 
	C206.326935,84.708908 206.119431,84.900177 206.130402,85.148346 
	C207.605133,86.620270 209.068909,87.844017 210.532669,89.067764 
	C211.490341,88.678505 212.447998,88.289238 213.826569,87.505341 
	C214.247482,87.110718 214.551682,86.926422 214.551682,86.926422 
	C214.779266,86.634445 215.006851,86.342468 215.682098,85.627014 
	C216.288879,85.022583 216.477936,84.889961 216.696915,84.805672 
	C216.875793,84.549728 217.054657,84.293793 217.711548,83.630173 
	C218.458527,82.679031 218.727493,82.135567 218.996460,81.592102 
	C218.996460,81.592110 219.214630,81.172928 219.829819,81.132828 
	C221.959091,80.194939 223.651672,79.501343 224.954849,78.362282 
	C229.417664,74.461487 233.725204,70.383682 238.129257,66.414772 
	C240.655975,64.137718 243.254730,61.940613 245.821060,59.707512 
	C246.779739,59.000450 247.738419,58.293385 249.232147,57.322853 
	C254.225952,54.382217 258.684723,51.705036 263.143463,49.027855 
	C264.471375,48.314915 265.799286,47.601971 267.655762,46.780884 
	C268.460205,46.410992 268.736053,46.149250 269.011902,45.887512 
	C269.011902,45.887512 268.999359,45.957867 269.360748,45.992035 
	C270.783142,45.994442 271.844116,45.962685 273.015076,46.201469 
	C272.371124,47.392754 271.238251,48.211376 270.955963,49.259171 
	C270.573059,50.680477 270.214355,52.871719 270.968842,53.667782 
	C272.299072,55.071270 274.479034,55.669407 276.303223,56.604721 
	C276.689270,54.838249 277.075287,53.071774 277.462860,51.298302 
	C285.611389,52.830929 317.773193,44.583977 322.906769,38.036560 
	C328.711823,38.874516 334.142181,39.475319 339.489197,40.507771 
	C342.146393,41.020847 346.395691,39.879883 345.680359,44.872623 
	C343.912476,43.946899 342.341980,41.520329 340.603302,44.996147 
	C336.010437,45.021305 331.885040,44.977253 327.472107,44.834030 
	C312.390625,45.781456 298.314606,49.540909 284.575317,55.998672 
	C278.843628,58.734474 273.467499,61.388130 267.766602,64.179718 
	C261.145538,68.516052 254.763733,72.594185 248.598755,76.977264 
	C246.403046,78.538330 244.733292,80.839157 242.540894,82.866699 
	C241.766693,83.227997 241.275070,83.524902 240.651932,84.005142 
	C240.660141,84.582138 240.799866,84.975807 240.870331,85.548553 
	C240.801041,85.727631 240.435715,85.845978 240.291367,85.894913 
	C240.147018,85.943848 239.880600,86.068413 239.516541,86.039108 
	C238.558685,86.815941 237.964905,87.622078 237.320786,88.302940 
	C237.270462,88.177658 237.420090,88.402435 237.052185,88.341827 
	C235.472305,89.558540 234.260330,90.835854 233.042145,92.077568 
	C233.035934,92.041969 233.107971,92.047897 232.757446,92.067398 
	C227.171204,96.162468 221.558029,99.927521 220.060577,107.080307 
	C220.052032,107.075371 220.052078,107.065094 219.789276,107.184578 
	C219.321121,107.822823 219.115799,108.341583 218.893875,109.337494 
	C218.854126,164.895660 218.830978,219.976669 218.651031,275.281067 
	C218.874863,278.733490 220.670685,279.093079 222.901947,277.337555 
	C230.058884,271.706635 237.106277,265.936523 244.404785,260.168884 
	C244.613617,260.117676 245.036865,260.029816 245.375763,259.961731 
	C253.496185,255.292435 261.277710,250.691238 269.348511,246.029175 
	C270.146179,245.679550 270.654572,245.390823 271.503479,245.085815 
	C272.904236,244.689774 273.964539,244.309998 275.241638,243.814514 
	C275.739471,243.501968 275.931549,243.239899 276.237122,242.762726 
	C276.908630,242.438828 277.377625,242.264771 277.979736,242.189758 
	C278.112823,242.288773 278.573151,242.315125 278.573151,242.315125 
	C278.573151,242.315125 278.912476,241.987885 279.215363,241.777710 
	C287.579620,238.640366 295.640961,235.713211 304.070679,232.436249 
	C305.112274,232.018875 305.785553,231.951294 306.434448,231.906296 
	C306.410034,231.928894 306.273163,231.928146 306.610168,231.599762 
	C307.210205,231.100479 307.473267,230.929581 308.017578,231.021103 
	C316.477020,229.889679 324.655212,228.495865 333.209473,226.863831 
	C336.185760,226.414490 338.785919,226.203354 341.406921,225.991241 
	C341.427704,225.990280 341.506500,225.976364 341.831390,225.588318 
	C342.484100,225.120483 342.811920,225.040680 343.368469,225.172974 
	C344.396698,223.226730 345.888550,221.070221 345.894196,218.909866 
	C346.024109,168.934860 345.983582,118.959435 346.000916,68.984085 
	C346.003448,61.657902 346.139038,54.331764 346.417297,47.362053 
	C346.748108,49.867256 346.845245,52.018204 347.006012,54.164394 
	C347.966919,66.991219 344.865356,80.017342 348.892212,92.706581 
	C349.114746,93.407753 348.698486,94.323799 348.538940,95.131805 
	C348.036835,97.674324 347.011169,100.227150 347.082062,102.750893 
	C347.588287,120.783485 348.462585,138.806137 348.920685,156.839554 
	C349.208923,168.186172 348.985474,179.545975 348.968475,190.899826 
	C348.967255,191.723480 348.598206,192.570557 348.703705,193.366486 
	C349.363251,198.340271 350.103699,203.303391 350.830414,208.268143 
	C351.012115,209.509628 351.857666,211.151962 351.351196,211.916626 
	C347.607605,217.568573 352.359894,221.122879 354.606323,225.491608 
	C355.358337,217.514862 352.954071,209.140182 359.101166,200.721939 
	C358.780518,204.501678 358.271667,207.020691 358.439178,209.493896 
	C358.610107,212.018188 359.445374,214.497498 359.992310,217.465149 
	C360.035156,224.315735 360.075439,230.697662 360.092468,237.072510 
	C360.069244,237.065430 360.086853,237.023941 359.857422,237.194550 
	C359.420471,238.078751 359.213013,238.792358 358.933289,239.794220 
	C358.826172,240.477753 358.791382,240.873001 358.756592,241.268280 
	C358.183563,241.532318 357.610504,241.796371 356.541046,241.680786 
	C353.572998,241.548920 351.101410,241.796677 348.629791,242.044434 
	C347.733276,242.144455 346.836761,242.244476 345.220276,241.972900 
	C336.953094,242.362579 329.405853,243.123856 321.448547,243.894440 
	C317.343842,244.620987 313.564850,245.060776 309.983521,246.150360 
	C307.483215,246.911087 305.253601,248.561539 302.903076,249.814590 
M188.953400,92.181213 
	C188.350708,91.759636 187.748032,91.338066 187.086334,90.916817 
	C187.086334,90.916817 187.076950,90.858566 186.896942,90.237984 
	C185.600113,89.157593 184.303299,88.077202 182.569473,86.489128 
	C177.363632,82.334641 172.157806,78.180153 166.830261,73.349281 
	C159.988464,66.828522 152.128113,62.137177 142.176849,59.762222 
	C136.179733,57.263313 130.182602,54.764404 123.929489,51.551601 
	C114.940269,49.390400 105.951050,47.229202 96.207489,44.728127 
	C90.872681,44.256809 85.542549,43.580368 80.199768,43.458469 
	C78.865089,43.428020 77.489655,45.184067 75.998199,47.025249 
	C76.011795,105.001457 76.025391,162.977661 75.989334,221.610489 
	C76.363052,222.863403 76.736771,224.116302 77.950020,225.702316 
	C82.273605,226.185562 86.597183,226.668793 91.485107,227.665817 
	C97.931152,228.818649 104.377197,229.971481 111.614906,231.043381 
	C121.088928,234.070297 130.562943,237.097214 140.196030,240.781387 
	C145.806290,243.210281 151.416550,245.639191 157.501358,248.557373 
	C165.562363,253.437393 173.623367,258.317413 181.930115,263.595642 
	C186.238739,266.755920 190.547348,269.916199 195.108322,273.546570 
	C195.374695,273.781006 195.641068,274.015472 196.130920,274.855621 
	C197.051636,275.259430 197.972351,275.663208 198.949951,276.056763 
	C198.949951,276.056763 198.946899,276.114471 199.118912,276.680298 
	C200.138763,276.734283 201.158600,276.788269 202.675064,276.212250 
	C202.791534,269.573242 203.005768,262.934265 203.008865,256.295227 
	C203.031326,208.037109 203.050690,159.778854 202.890686,111.521263 
	C202.882492,109.051979 201.218628,106.588188 200.101608,103.790047 
	C198.430069,102.172707 196.758545,100.555359 195.030533,98.976418 
	C195.030533,98.976418 195.060745,98.915192 194.943100,98.337769 
	C194.344772,97.863312 193.746429,97.388855 193.094040,96.901428 
	C193.094040,96.901428 193.090607,96.845932 192.960938,96.270226 
	C192.345764,95.821716 191.730576,95.373207 191.061523,94.938629 
	C191.061523,94.938629 191.074280,94.884453 190.962555,94.323502 
	C190.389969,93.859856 189.817398,93.396202 189.135071,92.856598 
	C189.135071,92.856598 189.083817,92.733376 188.953400,92.181213 
z"/>
<path fill="#E4AF1A" opacity="1.000000" stroke="none" 
	d="
M360.115723,237.079575 
	C360.075439,230.697662 360.035156,224.315735 359.995453,216.996964 
	C359.996948,164.706787 359.997864,113.353470 360.000427,61.600105 
	C360.000580,60.133224 359.999084,59.066391 359.998718,57.555443 
	C359.998718,54.741123 359.997528,52.370922 359.998505,49.532379 
	C360.001221,46.899067 360.039673,44.733330 359.996094,42.569244 
	C359.717377,28.726698 362.033722,30.439898 349.015625,27.137091 
	C352.755493,27.368031 356.495331,27.598969 360.625702,28.429344 
	C361.289093,44.306805 361.755127,59.584503 361.780548,74.862938 
	C361.805969,90.141129 361.286621,105.419434 361.195343,120.698822 
	C361.083221,139.464523 361.079590,158.231918 361.193054,176.997589 
	C361.291687,193.307251 361.731903,209.615341 361.758972,225.924545 
	C361.765167,229.641968 360.692047,233.361191 360.115723,237.079575 
z"/>
<path fill="#EDCF77" opacity="1.000000" stroke="none" 
	d="
M360.092468,237.072510 
	C360.692047,233.361191 361.765167,229.641968 361.758972,225.924545 
	C361.731903,209.615341 361.291687,193.307251 361.193054,176.997589 
	C361.079590,158.231918 361.083221,139.464523 361.195343,120.698822 
	C361.286621,105.419434 361.805969,90.141129 361.780548,74.862938 
	C361.755127,59.584503 361.289093,44.306805 361.025696,28.567177 
	C361.689636,29.818363 362.913849,31.530268 362.916504,33.244076 
	C363.020660,100.120750 363.020996,166.997589 362.975677,233.874374 
	C362.974579,235.467972 362.299744,237.061111 361.404449,238.829987 
	C360.608795,238.344986 360.347809,237.684464 360.086853,237.023941 
	C360.086853,237.023941 360.069244,237.065430 360.092468,237.072510 
z"/>
<path fill="#F3B51B" opacity="1.000000" stroke="none" 
	d="
M348.617859,27.078724 
	C362.033722,30.439898 359.717377,28.726698 359.996094,42.569244 
	C360.039673,44.733330 360.001221,46.899067 359.622223,49.529282 
	C355.048004,49.713890 353.381287,48.556038 356.114685,44.114872 
	C357.154449,42.425560 356.959991,38.016804 355.801025,37.293182 
	C351.977386,34.905815 347.227264,34.176872 343.766724,30.704214 
	C343.447357,30.383728 339.518494,33.660172 336.938019,35.500042 
	C332.091003,34.760777 326.124237,33.875149 320.169861,32.912773 
	C319.393646,32.787315 318.681183,32.267094 318.233551,31.687265 
	C320.272858,30.990366 321.994781,30.390310 323.767242,30.109701 
	C328.449524,29.368431 333.153748,28.765631 337.849213,28.107708 
	C341.306183,27.745256 344.763123,27.382805 348.617859,27.078724 
z"/>
<path fill="#FDDB7A" opacity="1.000000" stroke="none" 
	d="
M59.574570,30.167648 
	C59.989792,84.201805 60.027756,138.454895 60.061165,192.707977 
	C60.070080,207.186798 60.065056,221.665634 59.999462,236.614166 
	C59.583748,235.568039 58.931164,234.052444 58.929981,232.536331 
	C58.878456,166.475250 58.882774,100.414131 58.896759,34.353024 
	C58.897038,33.030853 59.091656,31.708723 59.574570,30.167648 
z"/>
<path fill="#DFC057" opacity="1.000000" stroke="none" 
	d="
M245.452820,59.748684 
	C243.254730,61.940613 240.655975,64.137718 238.129257,66.414772 
	C233.725204,70.383682 229.417664,74.461487 224.954849,78.362282 
	C223.651672,79.501343 221.959091,80.194939 220.055145,81.061737 
	C228.138382,73.950455 236.611481,66.870155 245.452820,59.748684 
z"/>
<path fill="#DAB854" opacity="1.000000" stroke="none" 
	d="
M153.898911,265.524902 
	C157.544647,266.984161 161.621506,268.327972 165.124985,270.568420 
	C170.243057,273.841309 174.949493,277.757874 179.862076,281.734436 
	C177.242767,280.511444 174.543610,279.031311 171.952698,277.381256 
	C165.965149,273.568024 160.030075,269.672455 153.898911,265.524902 
z"/>
<path fill="#E7C65B" opacity="1.000000" stroke="none" 
	d="
M72.027092,242.091812 
	C76.260925,241.971405 80.904976,241.388824 85.338112,242.107452 
	C93.210648,243.383591 100.955276,245.448761 108.860153,247.523163 
	C96.758690,245.980270 84.550499,244.098038 72.027092,242.091812 
z"/>
<path fill="#E2C25A" opacity="1.000000" stroke="none" 
	d="
M253.338867,273.736450 
	C253.554840,272.840942 253.841965,271.404022 254.673370,270.937805 
	C263.063843,266.233063 271.543365,261.687225 280.338562,257.070404 
	C279.663055,258.010590 278.786713,259.216522 277.608063,259.904999 
	C269.662048,264.546478 261.651978,269.078278 253.338867,273.736450 
z"/>
<path fill="#DAB854" opacity="1.000000" stroke="none" 
	d="
M196.873032,78.117889 
	C196.315445,77.611870 195.757858,77.105858 194.966217,76.124107 
	C194.508362,75.402443 194.284546,75.156509 194.060745,74.910583 
	C189.020599,70.759087 183.980469,66.607590 178.787186,62.270065 
	C180.243774,62.666420 182.157028,62.875542 183.411072,63.895317 
	C189.057770,68.487167 194.517502,73.308945 200.119751,78.429085 
	C200.194855,78.810341 199.985626,79.020103 199.664154,79.006836 
	C198.914276,79.007912 198.485870,79.022263 198.057480,79.036606 
	C198.057480,79.036606 197.987305,79.010994 197.838776,78.783081 
	C197.470245,78.311523 197.197845,78.165764 196.873032,78.117889 
z"/>
<path fill="#DFC057" opacity="1.000000" stroke="none" 
	d="
M91.995514,28.772196 
	C82.726547,28.319448 73.457588,27.866703 63.873207,27.254045 
	C63.866272,26.731524 64.197906,26.035158 64.479874,26.054718 
	C73.436539,26.676052 82.388374,27.366816 91.693489,28.332870 
	C92.046028,28.618671 91.995514,28.772196 91.995514,28.772196 
z"/>
<path fill="#E7C65B" opacity="1.000000" stroke="none" 
	d="
M272.905121,45.930923 
	C271.844116,45.962685 270.783142,45.994442 269.326447,45.982086 
	C277.686127,42.269913 286.441498,38.601852 295.595337,35.244385 
	C295.993378,35.740868 295.992950,35.926758 295.675903,36.265877 
	C288.551514,39.271030 281.743774,42.122959 274.698120,44.977882 
	C274.460236,44.980877 273.986969,45.030182 273.769775,45.132462 
	C273.270721,45.413090 273.072235,45.658787 272.948792,45.957516 
	C272.940491,45.943199 272.905121,45.930927 272.905121,45.930923 
z"/>
<path fill="#E3C35E" opacity="1.000000" stroke="none" 
	d="
M197.865662,299.482574 
	C198.996017,299.798676 200.737778,300.106567 201.427597,301.126160 
	C205.630890,307.338867 210.907379,308.174683 217.548416,304.683655 
	C214.740799,309.733551 207.992783,310.516022 203.442932,306.086731 
	C201.462997,304.159241 199.798599,301.907654 197.865662,299.482574 
z"/>
<path fill="#E2C25A" opacity="1.000000" stroke="none" 
	d="
M143.959625,41.622604 
	C136.843643,39.552490 129.584473,37.160725 122.255020,34.434906 
	C129.395309,36.500889 136.605881,38.900921 143.959625,41.622604 
z"/>
<path fill="#E2C25A" opacity="1.000000" stroke="none" 
	d="
M170.345810,55.687515 
	C163.704391,52.468498 156.981766,48.955994 150.155273,45.097748 
	C156.789139,48.299347 163.526871,51.846687 170.345810,55.687515 
z"/>
<path fill="#E8C95B" opacity="1.000000" stroke="none" 
	d="
M337.440369,28.022507 
	C333.153748,28.765631 328.449524,29.368431 323.767242,30.109701 
	C321.994781,30.390310 320.272858,30.990366 317.911285,31.694763 
	C316.863861,31.967220 316.433075,31.989723 315.669312,31.999165 
	C313.875885,32.048218 312.415405,32.110336 310.968079,31.895058 
	C310.986908,31.432613 310.992584,31.247562 310.998230,31.062513 
	C310.998230,31.062513 311.444550,30.884867 312.012817,30.928688 
	C313.387451,30.688997 314.193848,30.405483 315.000214,30.121975 
	C322.343964,29.393755 329.687744,28.665529 337.440369,28.022507 
z"/>
<path fill="#DFC057" opacity="1.000000" stroke="none" 
	d="
M321.858643,243.885132 
	C329.405853,243.123856 336.953094,242.362579 344.772400,241.907135 
	C338.304382,243.102814 331.564270,243.992661 324.176758,244.667023 
	C322.972473,244.262756 322.415558,244.073944 321.858643,243.885132 
z"/>
<path fill="#E3C35E" opacity="1.000000" stroke="none" 
	d="
M321.448547,243.894440 
	C322.415558,244.073944 322.972473,244.262756 323.750061,244.645844 
	C317.211609,246.479202 310.452454,248.118301 303.298218,249.785980 
	C305.253601,248.561539 307.483215,246.911087 309.983521,246.150360 
	C313.564850,245.060776 317.343842,244.620987 321.448547,243.894440 
z"/>
<path fill="#E5C760" opacity="1.000000" stroke="none" 
	d="
M92.092125,29.078814 
	C91.995514,28.772196 92.046028,28.618671 92.058395,28.536036 
	C98.431122,29.452721 104.791489,30.452042 111.211594,31.693428 
	C104.910469,31.085472 98.549599,30.235453 92.092125,29.078814 
z"/>
<path fill="#E5C35A" opacity="1.000000" stroke="none" 
	d="
M136.101593,255.730637 
	C141.989120,258.683838 147.876663,261.637024 153.831207,264.943573 
	C148.136353,262.596527 142.374512,259.896088 136.328094,256.742676 
	C136.062881,256.103302 136.082230,255.916962 136.101593,255.730637 
z"/>
<path fill="#D2B153" opacity="1.000000" stroke="none" 
	d="
M224.331512,297.915283 
	C228.003555,293.917603 231.921127,289.985138 236.152039,286.026794 
	C232.502594,289.994080 228.539825,293.987244 224.331512,297.915283 
z"/>
<path fill="#DCBD53" opacity="1.000000" stroke="none" 
	d="
M283.377655,257.022675 
	C286.715118,251.671616 292.887177,251.653687 298.730408,250.051086 
	C294.009583,252.377945 288.883575,254.686325 283.377655,257.022675 
z"/>
<path fill="#DCBD53" opacity="1.000000" stroke="none" 
	d="
M262.758667,48.947723 
	C258.684723,51.705036 254.225952,54.382217 249.390778,57.054619 
	C253.467560,54.322426 257.920715,51.595009 262.758667,48.947723 
z"/>
<path fill="#DCBD53" opacity="1.000000" stroke="none" 
	d="
M135.962830,255.425293 
	C136.082230,255.916962 136.062881,256.103302 136.022446,256.569855 
	C131.939041,255.077362 127.876717,253.304642 123.707413,251.240372 
	C127.674980,252.339188 131.749527,253.729568 135.962830,255.425293 
z"/>
<path fill="#E5C35A" opacity="1.000000" stroke="none" 
	d="
M187.862076,289.420837 
	C190.891846,291.480225 193.925507,293.883118 196.708832,296.652893 
	C196.232910,297.041534 196.007309,297.063324 195.781693,297.085083 
	C193.143127,294.644836 190.504547,292.204620 187.862076,289.420837 
z"/>
<path fill="#DFC057" opacity="1.000000" stroke="none" 
	d="
M348.908203,242.112183 
	C351.101410,241.796677 353.572998,241.548920 356.220886,241.610992 
	C353.993622,242.007172 351.590149,242.093552 348.908203,242.112183 
z"/>
<path fill="#E8C95B" opacity="1.000000" stroke="none" 
	d="
M295.992523,36.112656 
	C295.992950,35.926758 295.993378,35.740868 295.995514,35.276142 
	C298.100952,34.328758 300.204651,33.660206 303.050964,33.028934 
	C304.275696,33.119453 304.757812,33.172691 304.927795,33.431572 
	C301.741333,34.462364 298.866913,35.287510 295.992523,36.112656 
z"/>
<path fill="#E2C25A" opacity="1.000000" stroke="none" 
	d="
M150.113983,44.591057 
	C148.197113,44.116665 146.183228,43.355694 144.099091,42.238129 
	C146.024887,42.689178 148.020935,43.496826 150.113983,44.591057 
z"/>
<path fill="#DAB854" opacity="1.000000" stroke="none" 
	d="
M210.383881,88.805000 
	C209.068909,87.844017 207.605133,86.620270 206.218216,85.037910 
	C207.608414,85.966942 208.921753,87.254593 210.383881,88.805000 
z"/>
<path fill="#FDDB7A" opacity="1.000000" stroke="none" 
	d="
M59.879578,237.407150 
	C60.967556,238.110153 62.043690,239.154999 63.178978,240.563568 
	C62.114666,239.867859 60.991199,238.808426 59.879578,237.407150 
z"/>
<path fill="#E4AF1A" opacity="1.000000" stroke="none" 
	d="
M359.857422,237.194550 
	C360.347809,237.684464 360.608795,238.344986 361.095306,239.167236 
	C361.053009,239.715256 360.785187,240.101547 360.181793,240.346893 
	C359.566010,239.972626 359.285767,239.739288 359.005554,239.505951 
	C359.213013,238.792358 359.420471,238.078751 359.857422,237.194550 
z"/>
<path fill="#DAB854" opacity="1.000000" stroke="none" 
	d="
M206.214325,84.418602 
	C205.289429,83.928223 204.251907,83.147537 203.303009,81.991737 
	C204.294968,82.453850 205.198349,83.291069 206.214325,84.418602 
z"/>
<path fill="#E5C760" opacity="1.000000" stroke="none" 
	d="
M305.239899,33.225929 
	C304.757812,33.172691 304.275696,33.119453 303.430420,33.044353 
	C304.215302,32.633335 305.363403,32.244175 306.746826,32.242756 
	C306.968292,32.839424 306.954407,33.048347 306.655701,33.248665 
	C305.993927,33.235348 305.616913,33.230640 305.239899,33.225929 
z"/>
<path fill="#E3C35E" opacity="1.000000" stroke="none" 
	d="
M195.904526,297.367188 
	C196.007309,297.063324 196.232910,297.041534 196.797882,296.985779 
	C197.399902,297.508942 197.662521,298.066132 197.876801,298.939514 
	C197.228088,298.720245 196.627716,298.184753 195.904526,297.367188 
z"/>
<path fill="#DFC057" opacity="1.000000" stroke="none" 
	d="
M218.867554,81.750595 
	C218.727493,82.135567 218.458527,82.679031 218.100159,83.368759 
	C218.253403,82.979713 218.496033,82.444405 218.867554,81.750595 
z"/>
<path fill="#E8C95B" opacity="1.000000" stroke="none" 
	d="
M306.940491,33.257275 
	C306.954407,33.048347 306.968292,32.839424 306.991760,32.316559 
	C307.001343,32.002625 307.378082,31.859833 307.968628,31.961884 
	C308.817444,32.125389 309.075745,32.186844 309.209747,32.472816 
	C308.370483,32.883976 307.655487,33.070625 306.940491,33.257275 
z"/>
<path fill="#DFC057" opacity="1.000000" stroke="none" 
	d="
M214.464172,86.891869 
	C214.551682,86.926422 214.247482,87.110718 214.235062,87.147476 
	C214.222641,87.184242 213.946243,87.101120 213.946243,87.101120 
	C213.946243,87.101120 214.376678,86.857315 214.464172,86.891869 
z"/>
<path fill="#E5C760" opacity="1.000000" stroke="none" 
	d="
M309.334015,32.248302 
	C309.075745,32.186844 308.817444,32.125389 308.168671,31.985477 
	C308.619232,31.597738 309.460327,31.288456 310.649811,31.020844 
	C310.992584,31.247562 310.986908,31.432613 310.695892,31.900179 
	C310.051697,32.204563 309.692841,32.226433 309.334015,32.248302 
z"/>
<path fill="#E5C760" opacity="1.000000" stroke="none" 
	d="
M314.674530,30.097446 
	C314.193848,30.405483 313.387451,30.688997 312.249878,30.967262 
	C312.728760,30.665651 313.538788,30.369287 314.674530,30.097446 
z"/>
<path fill="#D2B153" opacity="1.000000" stroke="none" 
	d="
M237.276169,285.400574 
	C237.401337,285.106934 237.727509,284.762268 238.198151,284.321350 
	C238.054123,284.599915 237.765640,284.974731 237.276169,285.400574 
z"/>
<path fill="#DFC057" opacity="1.000000" stroke="none" 
	d="
M216.581390,84.763908 
	C216.477936,84.889961 216.288879,85.022583 216.112976,85.276733 
	C216.096207,85.349937 216.056854,84.945335 216.056854,84.945335 
	C216.056854,84.945335 216.465866,84.722145 216.581390,84.763908 
z"/>
<path fill="#DCBD53" opacity="1.000000" stroke="none" 
	d="
M268.816956,45.957977 
	C268.736053,46.149250 268.460205,46.410992 268.043579,46.770138 
	C268.142517,46.587845 268.382233,46.308147 268.816956,45.957977 
z"/>
<path fill="#DFC057" opacity="1.000000" stroke="none" 
	d="
M358.933258,239.794220 
	C359.285767,239.739288 359.566010,239.972626 360.005859,240.428589 
	C359.877197,240.849838 359.588928,241.048447 359.028625,241.257660 
	C358.791382,240.873001 358.826172,240.477753 358.933258,239.794220 
z"/>
<path fill="#E5C35A" opacity="1.000000" stroke="none" 
	d="
M187.640198,288.536987 
	C187.602615,288.594116 187.670441,288.743408 187.923737,288.959961 
	C187.791794,289.029785 187.670593,288.897095 187.640198,288.536987 
z"/>
<path fill="#DAB854" opacity="1.000000" stroke="none" 
	d="
M203.321075,81.439415 
	C203.081131,81.531952 202.736374,81.353233 202.317230,80.878616 
	C202.567307,80.777870 202.891769,80.973015 203.321075,81.439415 
z"/>
<path fill="#DAB854" opacity="1.000000" stroke="none" 
	d="
M202.249847,80.355858 
	C202.130051,80.682487 201.932480,80.783867 201.383453,80.700821 
	C201.015015,80.348816 200.998016,80.181221 201.087708,79.909019 
	C201.194412,79.804420 201.405731,79.593094 201.405731,79.593094 
	C201.730118,79.673958 201.985565,79.853127 202.249847,80.355858 
z"/>
<path fill="#DAB854" opacity="1.000000" stroke="none" 
	d="
M200.301010,78.707016 
	C200.734726,78.693840 200.997452,78.876999 201.300537,79.373123 
	C201.405731,79.593094 201.194412,79.804420 200.897995,79.768570 
	C200.362289,79.524536 200.156982,79.286995 199.985626,79.020103 
	C199.985626,79.020103 200.194855,78.810341 200.301010,78.707016 
z"/>
<path fill="#020100" opacity="1.000000" stroke="none" 
	d="
M124.185486,52.265499 
	C130.182602,54.764404 136.179733,57.263313 142.640259,60.215698 
	C151.053085,65.121338 159.002533,69.573502 166.951965,74.025665 
	C172.157806,78.180153 177.363632,82.334641 182.867966,87.059174 
	C184.469955,88.705666 185.773453,89.782120 187.076950,90.858566 
	C187.076950,90.858566 187.086334,90.916817 187.230927,91.171463 
	C187.944946,91.861870 188.514374,92.297623 189.083817,92.733376 
	C189.083817,92.733376 189.135071,92.856598 189.259583,93.176544 
	C189.947495,93.959145 190.510895,94.421799 191.074280,94.884453 
	C191.074280,94.884453 191.061523,94.938629 191.182404,95.207794 
	C191.899063,95.933281 192.494827,96.389610 193.090607,96.845932 
	C193.090607,96.845932 193.094040,96.901428 193.210968,97.198318 
	C193.905502,97.968544 194.483124,98.441864 195.060745,98.915192 
	C195.060745,98.915192 195.030533,98.976418 195.131744,99.290314 
	C197.070847,101.790756 198.908707,103.977310 200.756653,106.189034 
	C200.766754,106.214195 200.803909,106.253677 200.826508,106.706543 
	C200.920395,134.936966 201.013901,162.714493 201.056625,190.492111 
	C201.097809,217.275116 201.127106,244.058380 201.005920,270.840820 
	C200.997955,272.601776 199.664047,274.356720 198.946899,276.114471 
	C198.946899,276.114471 198.949951,276.056763 198.812866,275.772034 
	C197.752991,275.074860 196.830200,274.662415 195.907440,274.249939 
	C195.641068,274.015472 195.374695,273.781006 195.002594,272.964722 
	C190.492691,269.321045 186.088531,266.259247 181.684372,263.197418 
	C173.623367,258.317413 165.562363,253.437393 157.205627,247.959747 
	C151.285583,244.949448 145.661285,242.536789 140.036972,240.124115 
	C130.562943,237.097214 121.088928,234.070297 110.886452,230.950287 
	C103.745590,229.622147 97.333176,228.387085 90.920769,227.152023 
	C86.597183,226.668793 82.273605,226.185562 77.638718,225.147232 
	C77.327415,164.932938 77.327415,105.273735 77.327415,44.919724 
	C83.552452,45.293247 89.298569,45.638035 95.405853,46.121696 
	C104.861664,48.520191 113.954025,50.789249 123.061111,52.997547 
	C123.359215,53.069832 123.807312,52.523479 124.185486,52.265499 
z"/>
<path fill="#010000" opacity="1.000000" stroke="none" 
	d="
M341.386108,225.992218 
	C338.785919,226.203354 336.185760,226.414490 332.831360,226.780762 
	C323.963531,228.210175 315.849915,229.484421 307.736298,230.758698 
	C307.473267,230.929581 307.210205,231.100479 306.670288,231.643738 
	C306.393463,232.016083 306.458832,231.883682 306.458832,231.883698 
	C305.785553,231.951294 305.112274,232.018875 303.812042,232.365326 
	C302.244781,232.582703 301.223358,232.248138 300.376038,232.499771 
	C280.240143,238.479752 261.229980,246.880051 243.967407,258.968140 
	C243.988373,258.983215 243.959869,258.941711 243.707779,258.997559 
	C243.094162,259.401428 242.732651,259.749420 242.028809,260.202759 
	C235.632538,264.950012 229.617172,269.644226 223.482071,274.176331 
	C222.584778,274.839172 221.117111,274.729889 219.977203,274.514465 
	C220.038849,272.389160 220.035919,270.727234 220.034576,269.065338 
	C219.991409,215.722809 219.948395,162.380280 219.998718,108.713638 
	C220.078735,107.948051 220.065399,107.506577 220.052063,107.065094 
	C220.052078,107.065094 220.052032,107.075371 220.223648,106.785576 
	C224.632828,101.679817 228.870407,96.863861 233.107971,92.047897 
	C233.107971,92.047897 233.035934,92.041969 233.285706,92.035385 
	C234.830338,90.820015 236.125214,89.611229 237.420090,88.402435 
	C237.420090,88.402435 237.270462,88.177658 237.690002,88.156830 
	C238.538452,87.829254 238.967361,87.522499 239.373566,87.132019 
	C239.350845,87.048302 239.197388,87.271034 239.419327,87.026520 
	C239.739090,86.584785 239.836899,86.387566 240.056396,86.231583 
	C240.365845,86.192383 240.451721,86.050102 240.435715,85.845978 
	C240.435715,85.845978 240.801041,85.727631 240.950211,85.530678 
	C241.099380,85.333725 241.140015,85.175117 241.391479,85.109093 
	C241.977707,84.659409 242.312454,84.275749 242.763214,83.882027 
	C242.879211,83.871964 242.903366,83.640366 243.087555,83.586044 
	C243.510849,83.398689 243.660599,83.198715 244.020386,82.758133 
	C252.759705,76.685966 261.199646,70.787460 269.993927,64.783623 
	C275.527222,62.103497 280.706207,59.528709 286.268494,56.921326 
	C297.391449,53.753807 308.130310,50.616039 318.871338,47.485821 
	C321.830719,46.623367 324.796722,45.783455 327.759674,44.933205 
	C331.885040,44.977253 336.010437,45.021305 341.013733,45.088562 
	C342.616821,46.631466 343.972687,48.149719 343.976135,49.671070 
	C344.105774,106.535698 344.118500,163.400620 344.090576,220.265472 
	C344.089813,221.830765 343.470581,223.395752 343.139740,224.960892 
	C342.811920,225.040680 342.484100,225.120483 341.822876,225.507782 
	C341.489471,225.815308 341.386108,225.992203 341.386108,225.992218 
z"/>
<path fill="#F5B51B" opacity="1.000000" stroke="none" 
	d="
M316.002258,32.012222 
	C316.433075,31.989723 316.863861,31.967220 317.616943,31.937218 
	C318.681183,32.267094 319.393646,32.787315 320.169861,32.912773 
	C326.124237,33.875149 332.091003,34.760777 336.938019,35.500042 
	C339.518494,33.660172 343.447357,30.383728 343.766724,30.704214 
	C347.227264,34.176872 351.977386,34.905815 355.801025,37.293182 
	C356.959991,38.016804 357.154449,42.425560 356.114685,44.114872 
	C353.381287,48.556038 355.048004,49.713890 359.620056,49.997620 
	C359.997528,52.370922 359.998718,54.741123 359.615417,57.561634 
	C358.232025,58.636349 357.233185,59.260757 356.234314,59.885162 
	C357.489136,60.590157 358.743958,61.295151 359.998779,62.000153 
	C359.997864,113.353470 359.996948,164.706787 359.992920,216.528290 
	C359.445374,214.497498 358.610107,212.018188 358.439178,209.493896 
	C358.271667,207.020691 358.780518,204.501678 359.101166,200.721939 
	C352.954071,209.140182 355.358337,217.514862 354.606323,225.491608 
	C352.359894,221.122879 347.607605,217.568573 351.351196,211.916626 
	C351.857666,211.151962 351.012115,209.509628 350.830414,208.268143 
	C350.103699,203.303391 349.363251,198.340271 348.703705,193.366486 
	C348.598206,192.570557 348.967255,191.723480 348.968475,190.899826 
	C348.985474,179.545975 349.208923,168.186172 348.920685,156.839554 
	C348.462585,138.806137 347.588287,120.783485 347.082062,102.750893 
	C347.011169,100.227150 348.036835,97.674324 348.538940,95.131805 
	C348.698486,94.323799 349.114746,93.407753 348.892212,92.706581 
	C344.865356,80.017342 347.966919,66.991219 347.006012,54.164394 
	C346.845245,52.018204 346.748108,49.867256 346.350739,47.037548 
	C346.041077,45.917839 346.002228,45.479088 345.963348,45.040337 
	C346.395691,39.879883 342.146393,41.020847 339.489197,40.507771 
	C334.142181,39.475319 328.711823,38.874516 322.906769,38.036560 
	C317.773193,44.583977 285.611389,52.830929 277.462860,51.298302 
	C277.075287,53.071774 276.689270,54.838249 276.303223,56.604721 
	C274.479034,55.669407 272.299072,55.071270 270.968842,53.667782 
	C270.214355,52.871719 270.573059,50.680477 270.955963,49.259171 
	C271.238251,48.211376 272.371124,47.392754 273.015076,46.201469 
	C272.905121,45.930927 272.940491,45.943199 273.153992,45.839520 
	C273.625610,45.545933 273.832092,45.310715 273.986969,45.030182 
	C273.986969,45.030182 274.460236,44.980877 275.086548,45.001144 
	C281.378326,47.687801 286.960541,48.391140 292.527771,44.651257 
	C296.723877,41.832432 300.971954,39.583035 306.282654,38.700706 
	C309.795929,38.117001 312.780792,34.352623 316.002258,32.012222 
M349.336182,41.768745 
	C348.788086,41.758282 348.239929,41.745892 347.692322,41.757954 
	C347.685028,41.758110 347.684540,42.067924 347.680878,42.233215 
	C348.228790,42.242371 348.776703,42.251526 349.336182,41.768745 
M350.452545,45.858696 
	C350.159607,45.913799 349.866638,45.968903 349.573700,46.024006 
	C349.864105,46.091064 350.154480,46.158123 350.452545,45.858696 
M277.521240,48.840523 
	C277.633301,48.655518 277.745361,48.470516 277.857422,48.285515 
	C277.718292,48.250935 277.486053,48.150993 277.456360,48.193260 
	C277.337585,48.362415 277.281647,48.575729 277.521240,48.840523 
z"/>
<path fill="#D2B153" opacity="1.000000" stroke="none" 
	d="
M345.680359,44.872623 
	C346.002228,45.479088 346.041077,45.917839 346.146484,46.681099 
	C346.139038,54.331764 346.003448,61.657902 346.000916,68.984085 
	C345.983582,118.959435 346.024109,168.934860 345.894196,218.909866 
	C345.888550,221.070221 344.396698,223.226730 343.368469,225.172974 
	C343.470581,223.395752 344.089813,221.830765 344.090576,220.265472 
	C344.118500,163.400620 344.105774,106.535698 343.976135,49.671070 
	C343.972687,48.149719 342.616821,46.631466 341.481201,45.019356 
	C342.341980,41.520329 343.912476,43.946899 345.680359,44.872623 
z"/>
<path fill="#EBCB6C" opacity="1.000000" stroke="none" 
	d="
M95.044678,45.982819 
	C89.298569,45.638035 83.552452,45.293247 77.327415,44.919724 
	C77.327415,105.273735 77.327415,164.932938 77.218948,224.980682 
	C76.736771,224.116302 76.363052,222.863403 76.234421,220.943649 
	C76.596130,219.124741 76.814453,217.972717 76.814796,216.820618 
	C76.831635,161.371841 76.834938,105.923073 76.800598,50.474319 
	C76.799698,49.022415 76.365234,47.570778 76.132957,46.119019 
	C77.489655,45.184067 78.865089,43.428020 80.199768,43.458469 
	C85.542549,43.580368 90.872681,44.256809 96.394310,45.091385 
	C96.068977,45.630699 95.556831,45.806759 95.044678,45.982819 
z"/>
<path fill="#FEDA71" opacity="1.000000" stroke="none" 
	d="
M76.065582,46.572136 
	C76.365234,47.570778 76.799698,49.022415 76.800598,50.474319 
	C76.834938,105.923073 76.831635,161.371841 76.814796,216.820618 
	C76.814453,217.972717 76.596130,219.124741 76.259247,220.615341 
	C76.025391,162.977661 76.011795,105.001457 76.065582,46.572136 
z"/>
<path fill="#8D7220" opacity="1.000000" stroke="none" 
	d="
M199.032898,276.397400 
	C199.664047,274.356720 200.997955,272.601776 201.005920,270.840820 
	C201.127106,244.058380 201.097809,217.275116 201.056625,190.492111 
	C201.013901,162.714493 200.920395,134.936966 201.151550,106.957504 
	C201.649719,108.712936 202.012543,110.670006 202.015747,112.627655 
	C202.056137,137.252350 202.028503,161.877136 202.050415,186.501877 
	C202.077209,216.615341 202.134399,246.728775 202.178452,276.842224 
	C201.158600,276.788269 200.138763,276.734283 199.032898,276.397400 
z"/>
<path fill="#FDD966" opacity="1.000000" stroke="none" 
	d="
M202.426758,276.527222 
	C202.134399,246.728775 202.077209,216.615341 202.050415,186.501877 
	C202.028503,161.877136 202.056137,137.252350 202.015747,112.627655 
	C202.012543,110.670006 201.649719,108.712936 201.128967,106.504639 
	C200.803909,106.253677 200.766754,106.214195 200.719666,105.664505 
	C200.556915,104.783829 200.441269,104.452835 200.325623,104.121849 
	C201.218628,106.588188 202.882492,109.051979 202.890686,111.521263 
	C203.050690,159.778854 203.031326,208.037109 203.008865,256.295227 
	C203.005768,262.934265 202.791534,269.573242 202.426758,276.527222 
z"/>
<path fill="#F3CF8E" opacity="1.000000" stroke="none" 
	d="
M219.905334,109.037743 
	C219.948395,162.380280 219.991409,215.722809 220.034576,269.065338 
	C220.035919,270.727234 220.038849,272.389160 219.701202,274.539856 
	C219.176849,275.038300 218.992340,275.048004 218.807816,275.057678 
	C218.830978,219.976669 218.854126,164.895660 219.142975,109.382172 
	C219.574203,108.979050 219.739761,109.008392 219.905334,109.037743 
z"/>
<path fill="#DCBD53" opacity="1.000000" stroke="none" 
	d="
M243.946426,258.953064 
	C261.229980,246.880051 280.240143,238.479752 300.376038,232.499771 
	C301.223358,232.248138 302.244781,232.582703 303.443726,232.715118 
	C295.640961,235.713211 287.579620,238.640366 278.948914,241.798828 
	C278.201935,242.050323 278.024261,242.070526 277.846619,242.090729 
	C277.377625,242.264771 276.908630,242.438828 276.041626,242.906403 
	C275.390900,243.404022 275.184631,243.647446 275.024811,243.930222 
	C273.964539,244.309998 272.904236,244.689774 271.193329,245.096069 
	C270.048218,245.445084 269.553741,245.767563 269.059265,246.090042 
	C261.277710,250.691238 253.496185,255.292435 245.229523,259.747986 
	C244.478409,259.385925 244.212418,259.169495 243.946426,258.953064 
z"/>
<path fill="#E3C35E" opacity="1.000000" stroke="none" 
	d="
M327.472107,44.834030 
	C324.796722,45.783455 321.830719,46.623367 318.871338,47.485821 
	C308.130310,50.616039 297.391449,53.753807 286.077850,56.780029 
	C285.266968,56.454582 285.075958,56.202980 284.930878,55.916527 
	C298.314606,49.540909 312.390625,45.781456 327.472107,44.834030 
z"/>
<path fill="#DFC057" opacity="1.000000" stroke="none" 
	d="
M269.639587,64.888954 
	C261.199646,70.787460 252.759705,76.685966 243.849716,82.779282 
	C243.379669,82.974091 243.042908,83.045044 242.987503,82.984848 
	C242.932098,82.924644 242.823456,82.802292 242.823456,82.802292 
	C244.733292,80.839157 246.403046,78.538330 248.598755,76.977264 
	C254.763733,72.594185 261.145538,68.516052 267.965820,64.271271 
	C268.873077,64.446251 269.256348,64.667603 269.639587,64.888954 
z"/>
<path fill="#E2C25A" opacity="1.000000" stroke="none" 
	d="
M218.651031,275.281067 
	C218.992340,275.048004 219.176849,275.038300 219.637375,275.003235 
	C221.117111,274.729889 222.584778,274.839172 223.482071,274.176331 
	C229.617172,269.644226 235.632538,264.950012 242.298950,260.179871 
	C243.272278,260.032623 243.633163,260.013519 244.045197,260.050293 
	C244.096329,260.106110 244.195938,260.220123 244.195938,260.220123 
	C237.106277,265.936523 230.058884,271.706635 222.901947,277.337555 
	C220.670685,279.093079 218.874863,278.733490 218.651031,275.281067 
z"/>
<path fill="#E5C760" opacity="1.000000" stroke="none" 
	d="
M95.405853,46.121696 
	C95.556831,45.806759 96.068977,45.630699 96.771484,45.261322 
	C105.951050,47.229202 114.940269,49.390400 124.057487,51.908554 
	C123.807312,52.523479 123.359215,53.069832 123.061111,52.997547 
	C113.954025,50.789249 104.861664,48.520191 95.405853,46.121696 
z"/>
<path fill="#E8C95B" opacity="1.000000" stroke="none" 
	d="
M166.891113,73.687469 
	C159.002533,69.573502 151.053085,65.121338 142.975616,60.332870 
	C152.128113,62.137177 159.988464,66.828522 166.891113,73.687469 
z"/>
<path fill="#E5C35A" opacity="1.000000" stroke="none" 
	d="
M308.017578,231.021088 
	C315.849915,229.484421 323.963531,228.210175 332.455261,227.018982 
	C324.655212,228.495865 316.477020,229.889679 308.017578,231.021088 
z"/>
<path fill="#DAB854" opacity="1.000000" stroke="none" 
	d="
M232.757446,92.067398 
	C228.870407,96.863861 224.632828,101.679817 220.232193,106.790512 
	C221.558029,99.927521 227.171204,96.162468 232.757446,92.067398 
z"/>
<path fill="#E2C25A" opacity="1.000000" stroke="none" 
	d="
M269.993927,64.783623 
	C269.256348,64.667603 268.873077,64.446251 268.290588,64.133347 
	C273.467499,61.388130 278.843628,58.734474 284.575317,55.998672 
	C285.075958,56.202980 285.266968,56.454582 285.694519,56.812626 
	C280.706207,59.528709 275.527222,62.103497 269.993927,64.783623 
z"/>
<path fill="#DFC057" opacity="1.000000" stroke="none" 
	d="
M140.116501,240.452759 
	C145.661285,242.536789 151.285583,244.949448 156.968353,247.715118 
	C151.416550,245.639191 145.806290,243.210281 140.116501,240.452759 
z"/>
<path fill="#E8C95B" opacity="1.000000" stroke="none" 
	d="
M91.202942,227.408920 
	C97.333176,228.387085 103.745590,229.622147 110.490616,230.990753 
	C104.377197,229.971481 97.931152,228.818649 91.202942,227.408920 
z"/>
<path fill="#E3C35E" opacity="1.000000" stroke="none" 
	d="
M181.807251,263.396545 
	C186.088531,266.259247 190.492691,269.321045 194.876404,272.729675 
	C190.547348,269.916199 186.238739,266.755920 181.807251,263.396545 
z"/>
<path fill="#8D7220" opacity="1.000000" stroke="none" 
	d="
M200.213623,103.955948 
	C200.441269,104.452835 200.556915,104.783829 200.709564,105.639343 
	C198.908707,103.977310 197.070847,101.790756 195.159988,99.271111 
	C196.758545,100.555359 198.430069,102.172707 200.213623,103.955948 
z"/>
<path fill="#DAB854" opacity="1.000000" stroke="none" 
	d="
M237.052185,88.341827 
	C236.125214,89.611229 234.830338,90.820015 233.291901,92.070984 
	C234.260330,90.835854 235.472305,89.558540 237.052185,88.341827 
z"/>
<path fill="#8D7220" opacity="1.000000" stroke="none" 
	d="
M186.986938,90.548279 
	C185.773453,89.782120 184.469955,88.705666 183.086456,87.313019 
	C184.303299,88.077202 185.600113,89.157593 186.986938,90.548279 
z"/>
<path fill="#DFC057" opacity="1.000000" stroke="none" 
	d="
M239.396286,87.215744 
	C238.967361,87.522499 238.538452,87.829254 237.740326,88.282120 
	C237.964905,87.622078 238.558685,86.815941 239.528397,86.070641 
	C239.904312,86.131485 239.934708,86.190346 239.934708,86.190346 
	C239.836899,86.387566 239.739090,86.584785 239.443832,86.993027 
	C239.246399,87.204033 239.396286,87.215744 239.396286,87.215744 
z"/>
<path fill="#8D7220" opacity="1.000000" stroke="none" 
	d="
M196.019165,274.552795 
	C196.830200,274.662415 197.752991,275.074860 198.784424,275.777161 
	C197.972351,275.663208 197.051636,275.259430 196.019165,274.552795 
z"/>
<path fill="#E2C25A" opacity="1.000000" stroke="none" 
	d="
M199.664154,79.006836 
	C200.156982,79.286995 200.362289,79.524536 200.791290,79.873169 
	C200.998016,80.181221 201.015015,80.348816 201.057236,80.768135 
	C200.172150,80.547203 199.261841,80.074539 198.204498,79.319244 
	C198.485870,79.022263 198.914276,79.007912 199.664154,79.006836 
z"/>
<path fill="#8D7220" opacity="1.000000" stroke="none" 
	d="
M195.001923,98.626480 
	C194.483124,98.441864 193.905502,97.968544 193.237991,97.204811 
	C193.746429,97.388855 194.344772,97.863312 195.001923,98.626480 
z"/>
<path fill="#8D7220" opacity="1.000000" stroke="none" 
	d="
M193.025772,96.558075 
	C192.494827,96.389610 191.899063,95.933281 191.209351,95.200821 
	C191.730576,95.373207 192.345764,95.821716 193.025772,96.558075 
z"/>
<path fill="#8D7220" opacity="1.000000" stroke="none" 
	d="
M191.018417,94.603973 
	C190.510895,94.421799 189.947495,93.959145 189.314453,93.214523 
	C189.817398,93.396202 190.389969,93.859856 191.018417,94.603973 
z"/>
<path fill="#8D7220" opacity="1.000000" stroke="none" 
	d="
M189.018616,92.457291 
	C188.514374,92.297623 187.944946,91.861870 187.260422,91.171310 
	C187.748032,91.338066 188.350708,91.759636 189.018616,92.457291 
z"/>
<path fill="#DFC057" opacity="1.000000" stroke="none" 
	d="
M240.783463,83.821808 
	C241.275070,83.524902 241.766693,83.227997 242.540878,82.866692 
	C242.823456,82.802292 242.932098,82.924644 242.946594,83.132149 
	C242.961105,83.339653 242.903366,83.640366 242.903366,83.640366 
	C242.903366,83.640366 242.879211,83.871964 242.499100,83.910194 
	C241.767838,83.985970 241.416672,84.023506 240.995361,84.000816 
	C240.925217,83.940582 240.783463,83.821808 240.783463,83.821808 
z"/>
<path fill="#DFC057" opacity="1.000000" stroke="none" 
	d="
M269.348511,246.029175 
	C269.553741,245.767563 270.048218,245.445084 270.852844,245.112335 
	C270.654572,245.390823 270.146179,245.679550 269.348511,246.029175 
z"/>
<path fill="#E2C25A" opacity="1.000000" stroke="none" 
	d="
M219.998703,108.713638 
	C219.739761,109.008392 219.574203,108.979050 219.159546,108.905022 
	C219.115799,108.341583 219.321121,107.822823 219.789261,107.184578 
	C220.065399,107.506577 220.078735,107.948051 219.998703,108.713638 
z"/>
<path fill="#E2C25A" opacity="1.000000" stroke="none" 
	d="
M243.967407,258.968140 
	C244.212418,259.169495 244.478409,259.385925 244.890625,259.816101 
	C245.036865,260.029816 244.613617,260.117676 244.404785,260.168884 
	C244.195938,260.220123 244.096329,260.106110 244.040680,259.787018 
	C243.976654,259.292542 243.968262,259.117126 243.959869,258.941711 
	C243.959869,258.941711 243.988373,258.983215 243.967407,258.968140 
z"/>
<path fill="#DFC057" opacity="1.000000" stroke="none" 
	d="
M275.241638,243.814514 
	C275.184631,243.647446 275.390900,243.404022 275.839142,243.056274 
	C275.931549,243.239899 275.739471,243.501968 275.241638,243.814514 
z"/>
<path fill="#DFC057" opacity="1.000000" stroke="none" 
	d="
M277.979736,242.189743 
	C278.024261,242.070526 278.201935,242.050323 278.646057,242.009003 
	C278.912476,241.987885 278.573151,242.315125 278.573151,242.315125 
	C278.573151,242.315125 278.112823,242.288773 277.979736,242.189743 
z"/>
<path fill="#E5C35A" opacity="1.000000" stroke="none" 
	d="
M306.434448,231.906281 
	C306.458832,231.883682 306.393463,232.016083 306.333313,231.972107 
	C306.273163,231.928146 306.410034,231.928894 306.434448,231.906281 
z"/>
<path fill="#D2B153" opacity="1.000000" stroke="none" 
	d="
M341.406921,225.991241 
	C341.386108,225.992203 341.489471,225.815308 341.497986,225.895844 
	C341.506500,225.976364 341.427704,225.990280 341.406921,225.991241 
z"/>
<path fill="#E2C25A" opacity="1.000000" stroke="none" 
	d="
M194.134857,75.151688 
	C194.284546,75.156509 194.508362,75.402443 194.809570,75.887421 
	C194.660980,75.881912 194.434967,75.637352 194.134857,75.151688 
z"/>
<path fill="#E2C25A" opacity="1.000000" stroke="none" 
	d="
M197.015839,78.299751 
	C197.197845,78.165764 197.470245,78.311523 197.815887,78.753555 
	C197.632767,78.874748 197.371796,78.717979 197.015839,78.299751 
z"/>
<path fill="#DAB854" opacity="1.000000" stroke="none" 
	d="
M240.056396,86.231583 
	C239.934708,86.190346 239.904312,86.131485 239.892456,86.099945 
	C239.880600,86.068413 240.147018,85.943848 240.291367,85.894913 
	C240.451721,86.050102 240.365845,86.192383 240.056396,86.231583 
z"/>
<path fill="#DFC057" opacity="1.000000" stroke="none" 
	d="
M241.019501,85.351593 
	C240.799866,84.975807 240.660141,84.582138 240.651932,84.005142 
	C240.783463,83.821808 240.925217,83.940582 241.000702,84.279778 
	C241.097473,84.804359 241.118744,84.989738 241.140015,85.175117 
	C241.140015,85.175117 241.099380,85.333725 241.019501,85.351593 
z"/>
<path fill="#F3B51B" opacity="1.000000" stroke="none" 
	d="
M360.000427,61.600101 
	C358.743958,61.295151 357.489136,60.590157 356.234314,59.885162 
	C357.233185,59.260757 358.232025,58.636349 359.614227,58.005753 
	C359.999084,59.066391 360.000580,60.133224 360.000427,61.600101 
z"/>
<path fill="#F3B51B" opacity="1.000000" stroke="none" 
	d="
M315.669312,31.999159 
	C312.780792,34.352623 309.795929,38.117001 306.282654,38.700706 
	C300.971954,39.583035 296.723877,41.832432 292.527771,44.651257 
	C286.960541,48.391140 281.378326,47.687801 275.324463,44.998154 
	C281.743774,42.122959 288.551514,39.271030 295.675903,36.265877 
	C298.866913,35.287510 301.741333,34.462364 304.927795,33.431572 
	C305.616913,33.230640 305.993927,33.235348 306.655701,33.248665 
	C307.655487,33.070625 308.370483,32.883976 309.209747,32.472816 
	C309.692841,32.226433 310.051697,32.204563 310.682739,32.177574 
	C312.415405,32.110336 313.875885,32.048218 315.669312,31.999159 
z"/>
<path fill="#F3B51B" opacity="1.000000" stroke="none" 
	d="
M273.769775,45.132462 
	C273.832092,45.310715 273.625610,45.545933 273.162292,45.853836 
	C273.072235,45.658787 273.270721,45.413090 273.769775,45.132462 
z"/>
<path fill="#DAB854" opacity="1.000000" stroke="none" 
	d="
M241.391479,85.109093 
	C241.118744,84.989738 241.097473,84.804359 241.070862,84.340012 
	C241.416672,84.023506 241.767838,83.985970 242.383102,83.920258 
	C242.312454,84.275749 241.977707,84.659409 241.391479,85.109093 
z"/>
<path fill="#DCBD53" opacity="1.000000" stroke="none" 
	d="
M243.707779,258.997559 
	C243.968262,259.117126 243.976654,259.292542 243.989532,259.731201 
	C243.633163,260.013519 243.272278,260.032623 242.641266,260.074585 
	C242.732651,259.749420 243.094162,259.401428 243.707779,258.997559 
z"/>
<path fill="#DAB854" opacity="1.000000" stroke="none" 
	d="
M239.373566,87.132019 
	C239.396286,87.215744 239.246399,87.204033 239.221893,87.237534 
	C239.197388,87.271034 239.350845,87.048302 239.373566,87.132019 
z"/>
<path fill="#DAB854" opacity="1.000000" stroke="none" 
	d="
M243.087555,83.586044 
	C242.903366,83.640366 242.961105,83.339653 243.002014,83.192352 
	C243.042908,83.045044 243.379669,82.974091 243.550339,82.952942 
	C243.660599,83.198715 243.510849,83.398689 243.087555,83.586044 
z"/>
<path fill="#F3B51B" opacity="1.000000" stroke="none" 
	d="
M349.330383,42.014713 
	C348.776703,42.251526 348.228790,42.242371 347.680878,42.233215 
	C347.684540,42.067924 347.685028,41.758110 347.692322,41.757954 
	C348.239929,41.745892 348.788086,41.758282 349.330383,42.014713 
z"/>
<path fill="#F3B51B" opacity="1.000000" stroke="none" 
	d="
M350.448730,46.041939 
	C350.154480,46.158123 349.864105,46.091064 349.573700,46.024002 
	C349.866638,45.968903 350.159607,45.913799 350.448730,46.041939 
z"/>
<path fill="#F3B51B" opacity="1.000000" stroke="none" 
	d="
M277.361877,48.806618 
	C277.281647,48.575729 277.337585,48.362415 277.456360,48.193260 
	C277.486053,48.150993 277.718292,48.250935 277.857422,48.285515 
	C277.745361,48.470516 277.633301,48.655518 277.361877,48.806618 
z"/>
</svg>